<svg width="823" height="155" viewBox="0 0 823 155" fill="none" xmlns="http://www.w3.org/2000/svg">
<g clip-path="url(#clip0_1_46)">
<path d="M0 146.683V0.975082L98.666 105.06V10.2479H119.085V155L20.4195 51.1632V146.683H0Z" fill="white"/>
<path d="M145.989 77.8537C145.989 58.658 152.966 42.158 166.94 28.373C180.837 14.588 197.559 7.70506 217.069 7.70506C236.578 7.70506 252.884 14.6645 266.667 28.5642C280.508 42.4639 287.428 59.1742 287.428 78.6758C287.428 98.1775 280.47 114.945 266.573 128.596C252.618 142.324 235.763 149.188 216.007 149.188C198.545 149.188 182.847 143.089 168.949 130.891C153.649 117.392 145.989 99.7262 145.989 77.8728V77.8537ZM166.579 78.1214C166.579 93.2065 171.604 105.596 181.652 115.327C191.644 125.04 203.171 129.916 216.273 129.916C230.473 129.916 242.437 124.964 252.201 115.079C261.946 105.06 266.838 92.8624 266.838 78.5038C266.838 64.1452 262.022 51.7559 252.372 41.9286C242.797 32.0248 230.928 27.092 216.803 27.092C202.679 27.092 190.829 32.0439 181.14 41.9286C171.433 51.7176 166.598 63.7819 166.598 78.1596L166.579 78.1214Z" fill="white"/>
<path d="M333.5 10.2479V146.683H313.081V10.2479H333.5Z" fill="white"/>
<path d="M366.016 146.683V0.975082L464.682 105.06V10.2479H485.101V155L386.435 51.1632V146.683H366.016Z" fill="white"/>
<path d="M512.005 77.8537C512.005 58.658 518.982 42.158 532.955 28.373C546.853 14.588 563.575 7.70506 583.085 7.70506C602.594 7.70506 618.899 14.6645 632.683 28.5642C646.524 42.4639 653.444 59.1742 653.444 78.6758C653.444 98.1775 646.486 114.945 632.588 128.596C618.634 142.324 601.779 149.188 582.023 149.188C564.561 149.188 548.863 143.089 534.965 130.891C519.665 117.392 512.005 99.7262 512.005 77.8728V77.8537ZM532.595 78.1214C532.595 93.2065 537.619 105.596 547.668 115.327C557.66 125.04 569.187 129.916 582.288 129.916C596.489 129.916 608.453 124.964 618.217 115.079C627.962 105.06 632.854 92.8624 632.854 78.5038C632.854 64.1452 628.038 51.7559 618.388 41.9286C608.813 32.0248 596.944 27.092 582.819 27.092C568.694 27.092 556.845 32.0439 547.156 41.9286C537.468 51.7176 532.614 63.7819 532.614 78.1596L532.595 78.1214Z" fill="white"/>
<path d="M674.375 146.683L702.853 0L749.304 106.036L797.405 0L823 146.683H802.05L788.986 64.3173L748.944 152.954L710.039 64.2408L695.496 146.683H674.375Z" fill="white"/>
</g>
<defs>
<clipPath id="clip0_1_46">
<rect width="823" height="155" fill="white"/>
</clipPath>
</defs>
</svg>
