<svg width="175" height="33" viewBox="0 0 175 33" fill="none" xmlns="http://www.w3.org/2000/svg">
<g clip-path="url(#clip0_1_15)">
<path d="M0 31.2293V0.2076L20.98 22.3677V2.18182H25.3219V33L4.34194 10.8928V31.2293H0Z" fill="white"/>
<path d="M31.0427 16.5753C31.0427 12.4885 32.5263 8.97558 35.4975 6.04071C38.4526 3.10583 42.0084 1.64043 46.1568 1.64043C50.3052 1.64043 53.7723 3.12212 56.7033 6.08141C59.6463 9.04071 61.1178 12.5984 61.1178 16.7503C61.1178 20.9023 59.6382 24.4722 56.6831 27.3786C53.7159 30.3012 50.1319 31.7626 45.931 31.7626C42.218 31.7626 38.8799 30.464 35.9248 27.867C32.6714 24.9932 31.0427 21.232 31.0427 16.5794V16.5753ZM35.4209 16.6323C35.4209 19.844 36.4892 22.4817 38.6259 24.5536C40.7506 26.6214 43.2017 27.6594 45.9875 27.6594C49.0071 27.6594 51.551 26.6052 53.6272 24.5007C55.6994 22.3677 56.7395 19.7707 56.7395 16.7137C56.7395 13.6567 55.7155 11.019 53.6635 8.92673C51.6276 6.81818 49.1039 5.76798 46.1004 5.76798C43.0969 5.76798 40.5772 6.82225 38.5171 8.92673C36.453 11.0109 35.4249 13.5794 35.4249 16.6404L35.4209 16.6323Z" fill="white"/>
<path d="M70.9143 2.18182V31.2293H66.5724V2.18182H70.9143Z" fill="white"/>
<path d="M77.8284 31.2293V0.2076L98.8084 22.3677V2.18182H103.15V33L82.1703 10.8928V31.2293H77.8284Z" fill="white"/>
<path d="M108.871 16.5753C108.871 12.4885 110.355 8.97558 113.326 6.04071C116.281 3.10583 119.837 1.64043 123.985 1.64043C128.134 1.64043 131.601 3.12212 134.532 6.08141C137.475 9.04071 138.946 12.5984 138.946 16.7503C138.946 20.9023 137.467 24.4722 134.511 27.3786C131.544 30.3012 127.96 31.7626 123.759 31.7626C120.046 31.7626 116.708 30.464 113.753 27.867C110.5 24.9932 108.871 21.232 108.871 16.5794V16.5753ZM113.249 16.6323C113.249 19.844 114.318 22.4817 116.454 24.5536C118.579 26.6214 121.03 27.6594 123.816 27.6594C126.835 27.6594 129.379 26.6052 131.456 24.5007C133.528 22.3677 134.568 19.7707 134.568 16.7137C134.568 13.6567 133.544 11.019 131.492 8.92673C129.456 6.81818 126.932 5.76798 123.929 5.76798C120.925 5.76798 118.406 6.82225 116.345 8.92673C114.285 11.0109 113.253 13.5794 113.253 16.6404L113.249 16.6323Z" fill="white"/>
<path d="M143.397 31.2293L149.452 0L159.33 22.5753L169.557 0L175 31.2293H170.545L167.767 13.6934L159.253 32.5644L150.98 13.6771L147.888 31.2293H143.397Z" fill="white"/>
</g>
<defs>
<clipPath id="clip0_1_15">
<rect width="175" height="33" fill="white"/>
</clipPath>
</defs>
</svg>
